Coordinates
version=1
nRows=13
nColumns=36
inDegrees=yes

Units are S.I. units (second, meters, Newtons, ...)
If the header above contains a line with 'inDegrees', this indicates whether rotational values are in degrees (yes) or radians (no).

endheader
time	pelvis_tilt	pelvis_list	pelvis_rotation	pelvis_tx	pelvis_ty	pelvis_tz	hip_flexion_r	hip_adduction_r	hip_rotation_r	knee_angle_r	knee_angle_r_beta	ankle_angle_r	subtalar_angle_r	mtp_angle_r	hip_flexion_l	hip_adduction_l	hip_rotation_l	knee_angle_l	knee_angle_l_beta	ankle_angle_l	subtalar_angle_l	mtp_angle_l	lumbar_extension	lumbar_bending	lumbar_rotation	arm_flex_r	arm_add_r	arm_rot_r	elbow_flex_r	pro_sup_r	arm_flex_l	arm_add_l	arm_rot_l	elbow_flex_l	pro_sup_l
      2.93750000	    -26.92671066	     -0.35889216	     -6.15340205	      0.09570272	      0.51822845	     -0.04215457	    113.78246902	    -15.38811568	      3.68555610	    129.58191227	      2.26163102	     40.28948867	     25.76711895	     -7.49999987	    119.85887889	    -15.94249341	     10.67461322	    129.35750811	      2.25771443	     35.74198278	     11.00592548	     -7.49999987	    -38.93886917	      2.48062349	      4.34055375	    119.62597303	      2.98735981	     27.30661518	    107.29804313	     89.25895773	    114.83079035	      3.83395551	     22.75681873	    113.95168511	     86.52480345
      2.94166670	    -27.90071169	     -0.34917945	     -6.25354043	      0.09711712	      0.52422225	     -0.04336685	    113.59764213	    -15.01555089	      2.82185826	    128.57808685	      2.24411096	     40.17993828	     25.01110423	     -7.49999987	    119.83700520	    -16.12519388	     10.52559857	    128.31225742	      2.23947136	     35.46837937	     10.57223853	     -7.49999987	    -37.94294081	      2.48124013	      4.25710592	    118.44204302	      3.27164615	     26.69600289	    107.10271201	     95.61100536	    113.76309259	      3.51316172	     22.49463599	    114.02407521	     91.91092340
      2.94583330	    -28.83843907	     -0.57248564	     -6.35563462	      0.09996990	      0.53235383	     -0.04207423	    113.19478589	    -14.74404280	      1.80091911	    127.46371997	      2.22466159	     40.04971444	     24.40264298	     -7.49999987	    119.80314382	    -16.24237910	     10.57874359	    127.26714945	      2.22123079	     35.29406177	     10.29832226	     -7.49999987	    -37.01509242	      2.64320306	      4.47466226	    117.07306448	      3.06653664	     26.84783439	    107.37326457	     92.30067926	    112.51873074	      3.42616824	     22.95037195	    114.18739140	     89.04834710
      2.95000000	    -29.78414085	     -0.67662471	     -6.33481643	      0.10388465	      0.53709238	     -0.04274658	    112.91643274	    -14.61524134	      1.17174018	    126.45367003	      2.20703289	     40.05956513	     23.89732435	     -7.49999987	    119.75733284	    -16.15784567	     10.31608908	    126.34013951	      2.20505141	     35.20731580	      9.98374362	     -7.49999987	    -35.86465504	      2.83152507	      4.45646055	    115.44776411	      2.76510772	     26.35293294	    107.86405303	     96.34585916	    111.07734424	      3.60400606	     23.04539701	    114.09402050	     92.60740944
      2.95416670	    -30.62803298	     -0.88652826	     -6.33924669	      0.10724226	      0.54187276	     -0.04084831	    112.54887028	    -14.62206953	      0.47069429	    125.60933641	      2.19229649	     40.12105537	     23.49551312	     -7.49999987	    119.69509795	    -16.03834457	     10.30179958	    125.53583997	      2.19101374	     35.24165924	      9.65560879	     -7.49999987	    -34.74407455	      3.01513995	      4.45576050	    113.68041870	      2.64020990	     26.24023830	    108.38842523	     94.03202858	    109.46229335	      3.64460765	     23.42342650	    114.12814686	     90.63532276
      2.95833330	    -31.47633091	     -1.27365849	     -6.30765102	      0.11360424	      0.54844486	     -0.04021521	    111.94864996	    -14.72598477	     -0.37546845	    124.79175054	      2.17802693	     40.30141974	     23.09047596	     -7.49999987	    119.61311325	    -15.82921749	     10.52439400	    124.79745143	      2.17812643	     35.36217329	      9.46217124	     -7.49999987	    -33.62332892	      3.52315173	      4.59142751	    111.88435375	      2.41051499	     26.18745202	    108.81407190	     94.08527940	    107.62462954	      3.60172031	     23.80743370	    114.34614032	     90.69245190
      2.96250000	    -32.40921799	     -1.37404060	     -6.31198428	      0.11116964	      0.55485090	     -0.04403118	    111.55739053	    -14.77072114	     -0.89647384	    123.64668514	      2.15804176	     40.30937792	     23.13284575	     -7.49999987	    119.47166333	    -15.58988047	     10.20736360	    123.87436423	      2.16201551	     35.45448775	      8.89902193	     -7.49999987	    -32.47524943	      3.65385960	      4.44231897	    110.12495000	      2.08339105	     25.66414252	    108.94357480	     93.34722639	    106.16838924	      4.03017034	     23.93542263	    113.60193320	     90.10067343
      2.96666670	    -33.10816611	     -1.65491851	     -6.34615355	      0.11305353	      0.56269871	     -0.04733984	    110.99108396	    -15.05147478	     -1.46260988	    122.42644761	      2.13674460	     40.12927567	     23.59755337	     -7.49999987	    119.07754039	    -15.24222713	      9.98858567	    122.82649009	      2.14372666	     35.63604526	      8.35369368	     -7.49999987	    -31.65832341	      3.98060694	      4.37873039	    108.54042071	      1.65454278	     24.92851878	    108.80067589	     97.43518199	    104.67799705	      4.35041682	     23.96495191	    112.61003628	     93.52021058
      2.97083330	    -33.50320328	     -1.83866969	     -6.32859340	      0.11470865	      0.56884022	     -0.04904946	    110.21207728	    -15.35148033	     -1.87762758	    121.23192810	      2.11589630	     40.07280241	     23.82560767	     -7.49999987	    118.43398229	    -14.78974742	      9.64090003	    121.96009368	      2.12860519	     35.80033170	      7.59958204	     -7.49999987	    -31.25268585	      4.42997472	      4.34461784	    107.45757484	      1.38604908	     24.86336898	    108.06097462	     97.12364782	    103.36651085	      4.55848941	     23.79452149	    111.72979849	     93.42457500
      2.97500000	    -33.62437973	     -1.89416001	     -6.30057787	      0.11572408	      0.57923185	     -0.04734493	    109.07978874	    -15.46335534	     -2.28105865	    119.94998429	      2.09352216	     39.87112475	     23.89520553	     -7.49999987	    117.24581298	    -14.54692719	      9.16576285	    120.83967274	      2.10905016	     35.97196690	      7.02091451	     -7.49999987	    -31.33566061	      4.54161797	      4.29086680	    106.30159393	      1.22380300	     24.81890930	    107.54155072	     97.11060559	    102.26850924	      4.42269569	     23.80706336	    111.00064403	     93.40385754
      2.97916670	    -33.66081204	     -1.81125154	     -6.24727794	      0.11383855	      0.58394092	     -0.05010967	    108.35952783	    -15.67490119	     -2.46996952	    118.98210598	      2.07662950	     39.47937297	     23.88565404	     -7.49999987	    116.29905152	    -14.10775723	      8.70274677	    119.87744025	      2.09225603	     35.84932698	      5.99486286	     -7.49999987	    -31.30332057	      4.56749820	      4.07955532	    105.29686561	      1.41219278	     24.32220052	    106.19317648	     96.56074173	    101.46237022	      4.56097174	     23.47126718	    109.23195141	     92.52541941
      2.98333330	    -33.57537157	     -1.80238875	     -6.19812554	      0.11497578	      0.58931715	     -0.05377486	    107.61852792	    -15.92734509	     -2.59277517	    118.20014567	      2.06298172	     39.10065223	     24.06642263	     -7.49999987	    115.52307700	    -13.67023714	      8.25227672	    119.15182858	      2.07959172	     35.78868577	      5.22777796	     -7.49999987	    -31.49306435	      4.71922970	      3.98677054	    104.63994179	      1.28801494	     24.15178270	    105.12133134	     95.94546523	    100.64514012	      4.58498333	     23.11719343	    107.98863355	     91.77069084
      2.98750000	    -33.42735302	     -1.81306417	     -6.07989952	      0.11899090	      0.59401725	     -0.05315463	    106.89608976	    -16.22108581	     -2.65569883	    117.57651207	      2.05209726	     38.82682938	     24.37536661	     -7.49999987	    114.74213341	    -13.31633561	      7.86687928	    118.56741467	      2.06939177	     35.82597289	      4.79674613	     -7.49999987	    -31.52892286	      4.87976949	      3.89811577	    103.59346886	      1.10391404	     23.83856131	    104.14916534	     95.88735811	     99.46502753	      4.44205989	     22.97024562	    106.86141900	     91.67379969
